<svg width="40" height="44" viewBox="0 0 40 44" fill="none" xmlns="http://www.w3.org/2000/svg">
<path d="M36 20H4C2.89543 20 2 20.8954 2 22V40C2 41.1046 2.89543 42 4 42H36C37.1046 42 38 41.1046 38 40V22C38 20.8954 37.1046 20 36 20Z" stroke="#6B2B14" stroke-width="4" stroke-miterlimit="10" stroke-linecap="round" stroke-linejoin="round"/>
<path d="M10 20V12C10 9.34784 11.0536 6.8043 12.9289 4.92893C14.8043 3.05357 17.3478 2 20 2C22.6522 2 25.1957 3.05357 27.0711 4.92893C28.9464 6.8043 30 9.34784 30 12V20" stroke="#6B2B14" stroke-width="4" stroke-miterlimit="10" stroke-linecap="round" stroke-linejoin="round"/>
</svg>
