<svg xmlns="http://www.w3.org/2000/svg" width="20.595" height="20.595" viewBox="0 0 20.595 20.595">
  <g id="settings_icon_for_sidebar" data-name="settings icon for sidebar" transform="translate(0.75 0.75)">
    <ellipse id="Oval" cx="2.5" cy="3" rx="2.5" ry="3" stroke-width="1.5" transform="translate(7.018 6.547)" stroke="#6b2b14" stroke-linecap="round" stroke-linejoin="round" stroke-miterlimit="10" fill="none"/>
    <path id="Shape" d="M15.97,12.151a1.432,1.432,0,0,0,.286,1.58l.052.052a1.737,1.737,0,1,1-2.456,2.456l-.052-.052a1.444,1.444,0,0,0-2.448,1.024v.148a1.736,1.736,0,1,1-3.472,0v-.078a1.432,1.432,0,0,0-.937-1.311,1.432,1.432,0,0,0-1.58.286l-.052.052a1.737,1.737,0,1,1-2.456-2.456l.052-.052a1.444,1.444,0,0,0-1.024-2.448H1.736a1.736,1.736,0,1,1,0-3.472h.078a1.432,1.432,0,0,0,1.311-.937,1.432,1.432,0,0,0-.286-1.58l-.052-.052A1.737,1.737,0,1,1,5.242,2.856l.052.052a1.432,1.432,0,0,0,1.58.286h.069a1.432,1.432,0,0,0,.868-1.311V1.736a1.736,1.736,0,0,1,3.472,0v.078a1.444,1.444,0,0,0,2.448,1.024l.052-.052a1.737,1.737,0,1,1,2.456,2.456l-.052.052a1.432,1.432,0,0,0-.286,1.58v.069a1.432,1.432,0,0,0,1.311.868h.148a1.736,1.736,0,0,1,0,3.472h-.078A1.432,1.432,0,0,0,15.97,12.151Z" transform="translate(0)" fill="none" stroke="#6b2b14" stroke-linecap="round" stroke-linejoin="round" stroke-miterlimit="10" stroke-width="1.5"/>
  </g>
</svg>
