<svg width="612" height="612" viewBox="0 0 612 612" fill="none" xmlns="http://www.w3.org/2000/svg">
<g filter="url(#filter0_d_305:67)">
<circle cx="306" cy="300" r="300" fill="#E89222"/>
<circle cx="306" cy="300" r="299" stroke="#AE6D19" stroke-width="2"/>
</g>
<g filter="url(#filter1_i_305:67)">
<circle cx="306" cy="300" r="250" fill="#F5D1A3"/>
</g>
<circle cx="306" cy="300" r="249" stroke="#AE6D19" stroke-width="2"/>
<g filter="url(#filter2_d_305:67)">
<rect x="300" y="6" width="13" height="39" fill="#AE6D19"/>
</g>
<g filter="url(#filter3_d_305:67)">
<rect x="299" y="555" width="13" height="39" fill="#AE6D19"/>
</g>
<g filter="url(#filter4_d_305:67)">
<rect x="561" y="306" width="13" height="39" transform="rotate(-90 561 306)" fill="#AE6D19"/>
</g>
<g filter="url(#filter5_d_305:67)">
<rect x="506.577" y="85" width="13" height="39" transform="rotate(45 506.577 85)" fill="#AE6D19"/>
</g>
<g filter="url(#filter6_d_305:67)">
<rect x="480" y="486.192" width="13" height="39" transform="rotate(-45 480 486.192)" fill="#AE6D19"/>
</g>
<g filter="url(#filter7_d_305:67)">
<rect x="402" y="536.975" width="13" height="39" transform="rotate(-22.5 402 536.975)" fill="#AE6D19"/>
</g>
<g filter="url(#filter8_d_305:67)">
<rect x="185" y="31.9749" width="13" height="39" transform="rotate(-22.5 185 31.9749)" fill="#AE6D19"/>
</g>
<g filter="url(#filter9_d_305:67)">
<rect x="415.925" y="27" width="13" height="39" transform="rotate(22.5 415.925 27)" fill="#AE6D19"/>
</g>
<g filter="url(#filter10_d_305:67)">
<rect x="201.925" y="533" width="13" height="39" transform="rotate(22.5 201.925 533)" fill="#AE6D19"/>
</g>
<g filter="url(#filter11_d_305:67)">
<rect x="122.577" y="477" width="13" height="39" transform="rotate(45 122.577 477)" fill="#AE6D19"/>
</g>
<g filter="url(#filter12_d_305:67)">
<rect x="67.9128" y="390.917" width="13" height="39" transform="rotate(67.5 67.9128 390.917)" fill="#AE6D19"/>
</g>
<g filter="url(#filter13_d_305:67)">
<rect x="575.031" y="181" width="13" height="39" transform="rotate(67.5 575.031 181)" fill="#AE6D19"/>
</g>
<g filter="url(#filter14_d_305:67)">
<rect x="539" y="403.01" width="13" height="39" transform="rotate(-67.5 539 403.01)" fill="#AE6D19"/>
</g>
<g filter="url(#filter15_d_305:67)">
<rect x="32" y="193.01" width="13" height="39" transform="rotate(-67.5 32 193.01)" fill="#AE6D19"/>
</g>
<g filter="url(#filter16_d_305:67)">
<rect x="94" y="96.1924" width="13" height="39" transform="rotate(-45 94 96.1924)" fill="#AE6D19"/>
</g>
<g filter="url(#filter17_d_305:67)">
<rect x="12" y="306" width="13" height="39" transform="rotate(-90 12 306)" fill="#AE6D19"/>
</g>
<g filter="url(#filter18_d_305:67)">
<path d="M297.6 401.4C306.4 401.4 313.6 400.733 319.2 399.4C325.067 397.8 329.733 395.8 333.2 393.4C336.667 390.733 339.067 387.667 340.4 384.2C341.733 380.733 342.4 376.867 342.4 372.6C342.4 363.533 338.133 356.067 329.6 350.2C321.067 344.067 306.4 337.533 285.6 330.6C276.533 327.4 267.467 323.8 258.4 319.8C249.333 315.533 241.2 310.333 234 304.2C226.8 297.8 220.933 290.2 216.4 281.4C211.867 272.333 209.6 261.4 209.6 248.6C209.6 235.8 212 224.333 216.8 214.2C221.6 203.8 228.4 195 237.2 187.8C246 180.6 256.667 175.133 269.2 171.4C281.733 167.4 295.867 165.4 311.6 165.4C330.267 165.4 346.4 167.4 360 171.4C373.6 175.4 384.8 179.8 393.6 184.6L375.6 233.8C367.867 229.8 359.2 226.333 349.6 223.4C340.267 220.2 328.933 218.6 315.6 218.6C300.667 218.6 289.867 220.733 283.2 225C276.8 229 273.6 235.267 273.6 243.8C273.6 248.867 274.8 253.133 277.2 256.6C279.6 260.067 282.933 263.267 287.2 266.2C291.733 268.867 296.8 271.4 302.4 273.8C308.267 275.933 314.667 278.2 321.6 280.6C336 285.933 348.533 291.267 359.2 296.6C369.867 301.667 378.667 307.667 385.6 314.6C392.8 321.533 398.133 329.667 401.6 339C405.067 348.333 406.8 359.667 406.8 373C406.8 398.867 397.733 419 379.6 433.4C361.467 447.533 334.133 454.6 297.6 454.6C285.333 454.6 274.267 453.8 264.4 452.2C254.533 450.867 245.733 449.133 238 447C230.533 444.867 224 442.6 218.4 440.2C213.067 437.8 208.533 435.533 204.8 433.4L222.4 383.8C230.667 388.333 240.8 392.467 252.8 396.2C265.067 399.667 280 401.4 297.6 401.4Z" fill="#6B2B14"/>
</g>
<g filter="url(#filter19_d_305:67)">
<path d="M159.581 172.387C160.608 170.97 161.196 169.869 161.345 169.081C161.495 168.293 161.172 167.612 160.378 167.036C159.756 166.585 158.945 166.577 157.945 167.011C156.91 167.42 155.536 168.189 153.822 169.318C152.496 170.201 151.228 170.968 150.018 171.62C148.834 172.236 147.663 172.652 146.505 172.867C145.314 173.057 144.114 173.004 142.905 172.707C141.697 172.411 140.437 171.787 139.124 170.836C136.568 168.982 135.236 166.567 135.128 163.59C135.02 160.614 136.169 157.467 138.573 154.151C139.775 152.493 141.083 151.017 142.496 149.722C143.874 148.403 145.061 147.419 146.058 146.772L151.092 152.477C150.13 153.149 149.139 153.933 148.121 154.829C147.128 155.69 146.156 156.777 145.204 158.089C143.451 160.507 143.248 162.205 144.595 163.181C144.906 163.407 145.22 163.555 145.537 163.627C145.854 163.699 146.246 163.667 146.713 163.531C147.146 163.371 147.688 163.131 148.34 162.814C148.982 162.436 149.76 161.946 150.672 161.342C152.521 160.1 154.157 159.152 155.58 158.498C156.969 157.818 158.251 157.43 159.427 157.334C160.594 157.179 161.697 157.294 162.736 157.678C163.799 158.028 164.901 158.616 166.041 159.442C168.736 161.396 170.035 163.892 169.939 166.932C169.868 169.938 168.493 173.288 165.813 176.984C164.06 179.402 162.387 181.273 160.796 182.596C159.229 183.884 158.082 184.739 157.355 185.16L152.025 179.319C153.495 178.382 154.886 177.336 156.199 176.179C157.477 174.998 158.604 173.734 159.581 172.387Z" fill="#AE6D19"/>
<path d="M192.315 129.56C190.593 127.172 188.685 125.655 186.589 125.01C184.468 124.33 182.352 124.751 180.241 126.273C179.548 126.772 178.933 127.268 178.395 127.761C177.831 128.22 177.384 128.621 177.053 128.965L187.121 142.93C187.83 142.893 188.64 142.703 189.552 142.362C190.497 141.995 191.368 141.525 192.164 140.952C195.833 138.307 195.883 134.51 192.315 129.56ZM200.057 123.664C201.579 125.775 202.704 127.883 203.432 129.988C204.161 132.093 204.472 134.13 204.367 136.099C204.261 138.069 203.714 139.936 202.725 141.701C201.736 143.466 200.272 145.048 198.334 146.445C197.261 147.218 196.182 147.838 195.098 148.304C194.014 148.77 192.902 149.125 191.762 149.368L199.173 159.647L191.437 165.224L165.5 129.246C166.043 128.54 166.702 127.776 167.477 126.954C168.227 126.097 169.037 125.251 169.906 124.413C170.81 123.551 171.739 122.724 172.692 121.931C173.656 121.079 174.605 120.316 175.539 119.642C177.789 118.02 180.046 116.919 182.31 116.339C184.549 115.724 186.724 115.603 188.833 115.975C190.918 116.313 192.908 117.141 194.803 118.457C196.734 119.748 198.485 121.483 200.057 123.664Z" fill="#AE6D19"/>
<path d="M232.353 126.658L223.58 130.396L210.383 99.4268L219.155 95.6884L232.353 126.658ZM216.166 86.3878C216.852 87.9971 216.866 89.4986 216.207 90.8922C215.571 92.2299 214.547 93.1998 213.134 93.802C211.721 94.4042 210.292 94.4797 208.848 94.0285C207.426 93.5214 206.372 92.4632 205.686 90.8539C205 89.2446 204.975 87.7711 205.611 86.4334C206.269 85.0398 207.305 84.0419 208.718 83.4397C210.131 82.8375 211.549 82.79 212.971 83.2971C214.415 83.7483 215.48 84.7785 216.166 86.3878Z" fill="#AE6D19"/>
<path d="M241.631 103.148C241.458 100.723 241.679 98.4183 242.293 96.2357C242.946 94.0076 243.962 92.053 245.339 90.3721C246.713 88.6485 248.431 87.2427 250.492 86.1546C252.553 85.0665 254.946 84.4253 257.669 84.2309C259.457 84.1034 261.107 84.1567 262.621 84.3909C264.132 84.5825 265.611 84.9261 267.058 85.4217L265.621 93.1596C264.703 92.8829 263.703 92.6549 262.621 92.4754C261.538 92.296 260.338 92.2533 259.018 92.3475C256.21 92.5479 254.165 93.5707 252.885 95.4158C251.648 97.2578 251.131 99.6046 251.334 102.456C251.55 105.478 252.355 107.773 253.751 109.342C255.188 110.907 257.524 111.575 260.759 111.344C261.908 111.262 263.135 111.067 264.439 110.76C265.743 110.453 266.931 110.026 268.005 109.479L269.901 117.172C268.828 117.719 267.473 118.222 265.838 118.681C264.202 119.14 262.385 119.441 260.384 119.583C257.32 119.802 254.65 119.543 252.373 118.808C250.093 118.029 248.173 116.904 246.614 115.433C245.097 113.958 243.922 112.182 243.09 110.102C242.296 107.977 241.81 105.659 241.631 103.148Z" fill="#AE6D19"/>
<path d="M315.074 78.0709C313.77 84.7075 312.342 90.9485 310.792 96.7939C309.242 102.639 307.484 108.333 305.52 113.874C304.807 115.87 304.067 117.568 303.299 118.969C302.534 120.412 301.661 121.608 300.679 122.558C299.701 123.55 298.55 124.301 297.227 124.811C295.95 125.359 294.419 125.718 292.635 125.885C291.149 126.025 289.754 126.006 288.452 125.829C287.196 125.69 286.148 125.488 285.309 125.224L286.253 117.486C287.262 117.734 288.155 117.886 288.931 117.941C289.708 117.997 290.521 117.984 291.371 117.905C293.07 117.745 294.322 117.156 295.126 116.137C295.976 115.157 296.644 113.83 297.13 112.156C294.564 108.112 291.95 103.558 289.289 98.4943C286.623 93.388 284.025 87.6326 281.494 81.2281L291.562 80.2815C292.142 81.8983 292.801 83.6577 293.536 85.5598C294.311 87.4155 295.111 89.3116 295.935 91.2482C296.756 93.1424 297.573 94.994 298.386 96.8032C299.242 98.6084 300.039 100.248 300.777 101.721C301.186 100.14 301.599 98.3868 302.018 96.4617C302.437 94.5367 302.831 92.5713 303.199 90.5653C303.606 88.5128 303.975 86.5069 304.305 84.5474C304.674 82.5414 304.992 80.6901 305.261 78.9935L315.074 78.0709Z" fill="#AE6D19"/>
</g>
<g filter="url(#filter20_d_305:67)">
<path d="M377.16 123.685C375.475 123.783 373.342 123.736 370.761 123.544C368.17 123.393 365.501 123.006 362.755 122.382C359.968 121.749 357.723 120.845 356.02 119.671C354.36 118.507 353.14 117.136 352.36 115.558C351.59 113.94 351.189 112.142 351.157 110.166C351.124 108.19 351.363 106.078 351.873 103.831L356.026 85.5451L365.326 87.6571L361.428 104.82C360.747 107.816 360.651 110.069 361.139 111.58C361.628 113.091 362.953 114.092 365.117 114.584C365.783 114.735 366.495 114.875 367.253 115.003C368.021 115.09 368.706 115.158 369.307 115.207L375.062 89.8682L384.361 91.9802L377.16 123.685Z" fill="#AE6D19"/>
<path d="M405.021 103.108C406.652 103.542 408.663 104.255 411.054 105.247C413.467 106.203 415.88 107.407 418.292 108.86C420.741 110.335 422.571 111.886 423.783 113.512C425.053 115.124 425.812 116.801 426.057 118.543C426.303 120.285 426.143 122.081 425.576 123.931C425.01 125.782 424.132 127.694 422.943 129.667L413.135 145.95L404.967 141.029L414.18 125.734C415.765 123.102 416.541 121.029 416.507 119.514C416.473 118 415.505 116.67 413.605 115.525C413.02 115.173 412.377 114.835 411.675 114.512C410.995 114.152 410.377 113.855 409.822 113.62L396.414 135.878L388.246 130.958L405.021 103.108Z" fill="#AE6D19"/>
<path d="M433.709 163.576L426.823 156.98L450.111 132.67L456.997 139.267L433.709 163.576ZM464.373 132.862C463.163 134.125 461.788 134.728 460.248 134.671C458.768 134.612 457.473 134.051 456.364 132.989C455.255 131.926 454.624 130.642 454.471 129.136C454.378 127.63 454.937 126.244 456.147 124.981C457.357 123.718 458.702 123.116 460.182 123.175C461.722 123.232 463.047 123.792 464.156 124.855C465.265 125.917 465.866 127.202 465.959 128.709C466.112 130.214 465.584 131.599 464.373 132.862Z" fill="#AE6D19"/>
<path d="M483.024 154.494L488.753 162.27L479.932 166.809L485.174 176.996L478.117 180.627L472.876 170.441L462.348 175.858C460.565 176.776 459.298 177.811 458.548 178.965C457.818 180.157 457.941 181.701 458.917 183.598C459.385 184.508 459.94 185.399 460.579 186.269C461.277 187.158 461.982 187.922 462.696 188.563L456.709 193.155C455.765 192.345 454.819 191.393 453.871 190.297C452.923 189.201 451.981 187.743 451.044 185.922C449.853 183.607 449.17 181.535 448.997 179.706C448.861 177.856 449.108 176.193 449.74 174.716C450.41 173.22 451.444 171.872 452.842 170.673C454.26 169.512 455.936 168.433 457.871 167.438L483.024 154.494Z" fill="#AE6D19"/>
</g>
<defs>
<filter id="filter0_d_305:67" x="0" y="0" width="612" height="612" filterUnits="userSpaceOnUse" color-interpolation-filters="sRGB">
<feFlood flood-opacity="0" result="BackgroundImageFix"/>
<feColorMatrix in="SourceAlpha" type="matrix" values="0 0 0 0 0 0 0 0 0 0 0 0 0 0 0 0 0 0 127 0" result="hardAlpha"/>
<feOffset dy="6"/>
<feGaussianBlur stdDeviation="3"/>
<feComposite in2="hardAlpha" operator="out"/>
<feColorMatrix type="matrix" values="0 0 0 0 0.419608 0 0 0 0 0.168627 0 0 0 0 0.0784314 0 0 0 1 0"/>
<feBlend mode="normal" in2="BackgroundImageFix" result="effect1_dropShadow_305:67"/>
<feBlend mode="normal" in="SourceGraphic" in2="effect1_dropShadow_305:67" result="shape"/>
</filter>
<filter id="filter1_i_305:67" x="56" y="50" width="500" height="506" filterUnits="userSpaceOnUse" color-interpolation-filters="sRGB">
<feFlood flood-opacity="0" result="BackgroundImageFix"/>
<feBlend mode="normal" in="SourceGraphic" in2="BackgroundImageFix" result="shape"/>
<feColorMatrix in="SourceAlpha" type="matrix" values="0 0 0 0 0 0 0 0 0 0 0 0 0 0 0 0 0 0 127 0" result="hardAlpha"/>
<feOffset dy="6"/>
<feGaussianBlur stdDeviation="3"/>
<feComposite in2="hardAlpha" operator="arithmetic" k2="-1" k3="1"/>
<feColorMatrix type="matrix" values="0 0 0 0 0.682353 0 0 0 0 0.427451 0 0 0 0 0.0980392 0 0 0 1 0"/>
<feBlend mode="normal" in2="shape" result="effect1_innerShadow_305:67"/>
</filter>
<filter id="filter2_d_305:67" x="298" y="6" width="17" height="43" filterUnits="userSpaceOnUse" color-interpolation-filters="sRGB">
<feFlood flood-opacity="0" result="BackgroundImageFix"/>
<feColorMatrix in="SourceAlpha" type="matrix" values="0 0 0 0 0 0 0 0 0 0 0 0 0 0 0 0 0 0 127 0" result="hardAlpha"/>
<feOffset dy="2"/>
<feGaussianBlur stdDeviation="1"/>
<feComposite in2="hardAlpha" operator="out"/>
<feColorMatrix type="matrix" values="0 0 0 0 0 0 0 0 0 0 0 0 0 0 0 0 0 0 0.25 0"/>
<feBlend mode="normal" in2="BackgroundImageFix" result="effect1_dropShadow_305:67"/>
<feBlend mode="normal" in="SourceGraphic" in2="effect1_dropShadow_305:67" result="shape"/>
</filter>
<filter id="filter3_d_305:67" x="297" y="555" width="17" height="43" filterUnits="userSpaceOnUse" color-interpolation-filters="sRGB">
<feFlood flood-opacity="0" result="BackgroundImageFix"/>
<feColorMatrix in="SourceAlpha" type="matrix" values="0 0 0 0 0 0 0 0 0 0 0 0 0 0 0 0 0 0 127 0" result="hardAlpha"/>
<feOffset dy="2"/>
<feGaussianBlur stdDeviation="1"/>
<feComposite in2="hardAlpha" operator="out"/>
<feColorMatrix type="matrix" values="0 0 0 0 0 0 0 0 0 0 0 0 0 0 0 0 0 0 0.25 0"/>
<feBlend mode="normal" in2="BackgroundImageFix" result="effect1_dropShadow_305:67"/>
<feBlend mode="normal" in="SourceGraphic" in2="effect1_dropShadow_305:67" result="shape"/>
</filter>
<filter id="filter4_d_305:67" x="559" y="293" width="43" height="17" filterUnits="userSpaceOnUse" color-interpolation-filters="sRGB">
<feFlood flood-opacity="0" result="BackgroundImageFix"/>
<feColorMatrix in="SourceAlpha" type="matrix" values="0 0 0 0 0 0 0 0 0 0 0 0 0 0 0 0 0 0 127 0" result="hardAlpha"/>
<feOffset dy="2"/>
<feGaussianBlur stdDeviation="1"/>
<feComposite in2="hardAlpha" operator="out"/>
<feColorMatrix type="matrix" values="0 0 0 0 0 0 0 0 0 0 0 0 0 0 0 0 0 0 0.25 0"/>
<feBlend mode="normal" in2="BackgroundImageFix" result="effect1_dropShadow_305:67"/>
<feBlend mode="normal" in="SourceGraphic" in2="effect1_dropShadow_305:67" result="shape"/>
</filter>
<filter id="filter5_d_305:67" x="477" y="85" width="40.7695" height="40.7695" filterUnits="userSpaceOnUse" color-interpolation-filters="sRGB">
<feFlood flood-opacity="0" result="BackgroundImageFix"/>
<feColorMatrix in="SourceAlpha" type="matrix" values="0 0 0 0 0 0 0 0 0 0 0 0 0 0 0 0 0 0 127 0" result="hardAlpha"/>
<feOffset dy="2"/>
<feGaussianBlur stdDeviation="1"/>
<feComposite in2="hardAlpha" operator="out"/>
<feColorMatrix type="matrix" values="0 0 0 0 0 0 0 0 0 0 0 0 0 0 0 0 0 0 0.25 0"/>
<feBlend mode="normal" in2="BackgroundImageFix" result="effect1_dropShadow_305:67"/>
<feBlend mode="normal" in="SourceGraphic" in2="effect1_dropShadow_305:67" result="shape"/>
</filter>
<filter id="filter6_d_305:67" x="478" y="477" width="40.7695" height="40.7695" filterUnits="userSpaceOnUse" color-interpolation-filters="sRGB">
<feFlood flood-opacity="0" result="BackgroundImageFix"/>
<feColorMatrix in="SourceAlpha" type="matrix" values="0 0 0 0 0 0 0 0 0 0 0 0 0 0 0 0 0 0 127 0" result="hardAlpha"/>
<feOffset dy="2"/>
<feGaussianBlur stdDeviation="1"/>
<feComposite in2="hardAlpha" operator="out"/>
<feColorMatrix type="matrix" values="0 0 0 0 0 0 0 0 0 0 0 0 0 0 0 0 0 0 0.25 0"/>
<feBlend mode="normal" in2="BackgroundImageFix" result="effect1_dropShadow_305:67"/>
<feBlend mode="normal" in="SourceGraphic" in2="effect1_dropShadow_305:67" result="shape"/>
</filter>
<filter id="filter7_d_305:67" x="400" y="532" width="30.9351" height="45.0061" filterUnits="userSpaceOnUse" color-interpolation-filters="sRGB">
<feFlood flood-opacity="0" result="BackgroundImageFix"/>
<feColorMatrix in="SourceAlpha" type="matrix" values="0 0 0 0 0 0 0 0 0 0 0 0 0 0 0 0 0 0 127 0" result="hardAlpha"/>
<feOffset dy="2"/>
<feGaussianBlur stdDeviation="1"/>
<feComposite in2="hardAlpha" operator="out"/>
<feColorMatrix type="matrix" values="0 0 0 0 0 0 0 0 0 0 0 0 0 0 0 0 0 0 0.25 0"/>
<feBlend mode="normal" in2="BackgroundImageFix" result="effect1_dropShadow_305:67"/>
<feBlend mode="normal" in="SourceGraphic" in2="effect1_dropShadow_305:67" result="shape"/>
</filter>
<filter id="filter8_d_305:67" x="183" y="27" width="30.9351" height="45.0061" filterUnits="userSpaceOnUse" color-interpolation-filters="sRGB">
<feFlood flood-opacity="0" result="BackgroundImageFix"/>
<feColorMatrix in="SourceAlpha" type="matrix" values="0 0 0 0 0 0 0 0 0 0 0 0 0 0 0 0 0 0 127 0" result="hardAlpha"/>
<feOffset dy="2"/>
<feGaussianBlur stdDeviation="1"/>
<feComposite in2="hardAlpha" operator="out"/>
<feColorMatrix type="matrix" values="0 0 0 0 0 0 0 0 0 0 0 0 0 0 0 0 0 0 0.25 0"/>
<feBlend mode="normal" in2="BackgroundImageFix" result="effect1_dropShadow_305:67"/>
<feBlend mode="normal" in="SourceGraphic" in2="effect1_dropShadow_305:67" result="shape"/>
</filter>
<filter id="filter9_d_305:67" x="399" y="27" width="30.9351" height="45.0061" filterUnits="userSpaceOnUse" color-interpolation-filters="sRGB">
<feFlood flood-opacity="0" result="BackgroundImageFix"/>
<feColorMatrix in="SourceAlpha" type="matrix" values="0 0 0 0 0 0 0 0 0 0 0 0 0 0 0 0 0 0 127 0" result="hardAlpha"/>
<feOffset dy="2"/>
<feGaussianBlur stdDeviation="1"/>
<feComposite in2="hardAlpha" operator="out"/>
<feColorMatrix type="matrix" values="0 0 0 0 0 0 0 0 0 0 0 0 0 0 0 0 0 0 0.25 0"/>
<feBlend mode="normal" in2="BackgroundImageFix" result="effect1_dropShadow_305:67"/>
<feBlend mode="normal" in="SourceGraphic" in2="effect1_dropShadow_305:67" result="shape"/>
</filter>
<filter id="filter10_d_305:67" x="185" y="533" width="30.9351" height="45.0061" filterUnits="userSpaceOnUse" color-interpolation-filters="sRGB">
<feFlood flood-opacity="0" result="BackgroundImageFix"/>
<feColorMatrix in="SourceAlpha" type="matrix" values="0 0 0 0 0 0 0 0 0 0 0 0 0 0 0 0 0 0 127 0" result="hardAlpha"/>
<feOffset dy="2"/>
<feGaussianBlur stdDeviation="1"/>
<feComposite in2="hardAlpha" operator="out"/>
<feColorMatrix type="matrix" values="0 0 0 0 0 0 0 0 0 0 0 0 0 0 0 0 0 0 0.25 0"/>
<feBlend mode="normal" in2="BackgroundImageFix" result="effect1_dropShadow_305:67"/>
<feBlend mode="normal" in="SourceGraphic" in2="effect1_dropShadow_305:67" result="shape"/>
</filter>
<filter id="filter11_d_305:67" x="93" y="477" width="40.7695" height="40.7695" filterUnits="userSpaceOnUse" color-interpolation-filters="sRGB">
<feFlood flood-opacity="0" result="BackgroundImageFix"/>
<feColorMatrix in="SourceAlpha" type="matrix" values="0 0 0 0 0 0 0 0 0 0 0 0 0 0 0 0 0 0 127 0" result="hardAlpha"/>
<feOffset dy="2"/>
<feGaussianBlur stdDeviation="1"/>
<feComposite in2="hardAlpha" operator="out"/>
<feColorMatrix type="matrix" values="0 0 0 0 0 0 0 0 0 0 0 0 0 0 0 0 0 0 0.25 0"/>
<feBlend mode="normal" in2="BackgroundImageFix" result="effect1_dropShadow_305:67"/>
<feBlend mode="normal" in="SourceGraphic" in2="effect1_dropShadow_305:67" result="shape"/>
</filter>
<filter id="filter12_d_305:67" x="29.8816" y="390.917" width="45.0061" height="30.9351" filterUnits="userSpaceOnUse" color-interpolation-filters="sRGB">
<feFlood flood-opacity="0" result="BackgroundImageFix"/>
<feColorMatrix in="SourceAlpha" type="matrix" values="0 0 0 0 0 0 0 0 0 0 0 0 0 0 0 0 0 0 127 0" result="hardAlpha"/>
<feOffset dy="2"/>
<feGaussianBlur stdDeviation="1"/>
<feComposite in2="hardAlpha" operator="out"/>
<feColorMatrix type="matrix" values="0 0 0 0 0 0 0 0 0 0 0 0 0 0 0 0 0 0 0.25 0"/>
<feBlend mode="normal" in2="BackgroundImageFix" result="effect1_dropShadow_305:67"/>
<feBlend mode="normal" in="SourceGraphic" in2="effect1_dropShadow_305:67" result="shape"/>
</filter>
<filter id="filter13_d_305:67" x="537" y="181" width="45.0063" height="30.9351" filterUnits="userSpaceOnUse" color-interpolation-filters="sRGB">
<feFlood flood-opacity="0" result="BackgroundImageFix"/>
<feColorMatrix in="SourceAlpha" type="matrix" values="0 0 0 0 0 0 0 0 0 0 0 0 0 0 0 0 0 0 127 0" result="hardAlpha"/>
<feOffset dy="2"/>
<feGaussianBlur stdDeviation="1"/>
<feComposite in2="hardAlpha" operator="out"/>
<feColorMatrix type="matrix" values="0 0 0 0 0 0 0 0 0 0 0 0 0 0 0 0 0 0 0.25 0"/>
<feBlend mode="normal" in2="BackgroundImageFix" result="effect1_dropShadow_305:67"/>
<feBlend mode="normal" in="SourceGraphic" in2="effect1_dropShadow_305:67" result="shape"/>
</filter>
<filter id="filter14_d_305:67" x="537" y="391" width="45.0063" height="30.9351" filterUnits="userSpaceOnUse" color-interpolation-filters="sRGB">
<feFlood flood-opacity="0" result="BackgroundImageFix"/>
<feColorMatrix in="SourceAlpha" type="matrix" values="0 0 0 0 0 0 0 0 0 0 0 0 0 0 0 0 0 0 127 0" result="hardAlpha"/>
<feOffset dy="2"/>
<feGaussianBlur stdDeviation="1"/>
<feComposite in2="hardAlpha" operator="out"/>
<feColorMatrix type="matrix" values="0 0 0 0 0 0 0 0 0 0 0 0 0 0 0 0 0 0 0.25 0"/>
<feBlend mode="normal" in2="BackgroundImageFix" result="effect1_dropShadow_305:67"/>
<feBlend mode="normal" in="SourceGraphic" in2="effect1_dropShadow_305:67" result="shape"/>
</filter>
<filter id="filter15_d_305:67" x="30" y="181" width="45.0061" height="30.9351" filterUnits="userSpaceOnUse" color-interpolation-filters="sRGB">
<feFlood flood-opacity="0" result="BackgroundImageFix"/>
<feColorMatrix in="SourceAlpha" type="matrix" values="0 0 0 0 0 0 0 0 0 0 0 0 0 0 0 0 0 0 127 0" result="hardAlpha"/>
<feOffset dy="2"/>
<feGaussianBlur stdDeviation="1"/>
<feComposite in2="hardAlpha" operator="out"/>
<feColorMatrix type="matrix" values="0 0 0 0 0 0 0 0 0 0 0 0 0 0 0 0 0 0 0.25 0"/>
<feBlend mode="normal" in2="BackgroundImageFix" result="effect1_dropShadow_305:67"/>
<feBlend mode="normal" in="SourceGraphic" in2="effect1_dropShadow_305:67" result="shape"/>
</filter>
<filter id="filter16_d_305:67" x="92" y="87" width="40.7695" height="40.7695" filterUnits="userSpaceOnUse" color-interpolation-filters="sRGB">
<feFlood flood-opacity="0" result="BackgroundImageFix"/>
<feColorMatrix in="SourceAlpha" type="matrix" values="0 0 0 0 0 0 0 0 0 0 0 0 0 0 0 0 0 0 127 0" result="hardAlpha"/>
<feOffset dy="2"/>
<feGaussianBlur stdDeviation="1"/>
<feComposite in2="hardAlpha" operator="out"/>
<feColorMatrix type="matrix" values="0 0 0 0 0 0 0 0 0 0 0 0 0 0 0 0 0 0 0.25 0"/>
<feBlend mode="normal" in2="BackgroundImageFix" result="effect1_dropShadow_305:67"/>
<feBlend mode="normal" in="SourceGraphic" in2="effect1_dropShadow_305:67" result="shape"/>
</filter>
<filter id="filter17_d_305:67" x="10" y="293" width="43" height="17" filterUnits="userSpaceOnUse" color-interpolation-filters="sRGB">
<feFlood flood-opacity="0" result="BackgroundImageFix"/>
<feColorMatrix in="SourceAlpha" type="matrix" values="0 0 0 0 0 0 0 0 0 0 0 0 0 0 0 0 0 0 127 0" result="hardAlpha"/>
<feOffset dy="2"/>
<feGaussianBlur stdDeviation="1"/>
<feComposite in2="hardAlpha" operator="out"/>
<feColorMatrix type="matrix" values="0 0 0 0 0 0 0 0 0 0 0 0 0 0 0 0 0 0 0.25 0"/>
<feBlend mode="normal" in2="BackgroundImageFix" result="effect1_dropShadow_305:67"/>
<feBlend mode="normal" in="SourceGraphic" in2="effect1_dropShadow_305:67" result="shape"/>
</filter>
<filter id="filter18_d_305:67" x="200.8" y="165.4" width="210" height="297.2" filterUnits="userSpaceOnUse" color-interpolation-filters="sRGB">
<feFlood flood-opacity="0" result="BackgroundImageFix"/>
<feColorMatrix in="SourceAlpha" type="matrix" values="0 0 0 0 0 0 0 0 0 0 0 0 0 0 0 0 0 0 127 0" result="hardAlpha"/>
<feOffset dy="4"/>
<feGaussianBlur stdDeviation="2"/>
<feComposite in2="hardAlpha" operator="out"/>
<feColorMatrix type="matrix" values="0 0 0 0 0.682353 0 0 0 0 0.427451 0 0 0 0 0.0980392 0 0 0 1 0"/>
<feBlend mode="normal" in2="BackgroundImageFix" result="effect1_dropShadow_305:67"/>
<feBlend mode="normal" in="SourceGraphic" in2="effect1_dropShadow_305:67" result="shape"/>
</filter>
<filter id="filter19_d_305:67" x="133.121" y="78.0708" width="183.953" height="111.09" filterUnits="userSpaceOnUse" color-interpolation-filters="sRGB">
<feFlood flood-opacity="0" result="BackgroundImageFix"/>
<feColorMatrix in="SourceAlpha" type="matrix" values="0 0 0 0 0 0 0 0 0 0 0 0 0 0 0 0 0 0 127 0" result="hardAlpha"/>
<feOffset dy="2"/>
<feGaussianBlur stdDeviation="1"/>
<feComposite in2="hardAlpha" operator="out"/>
<feColorMatrix type="matrix" values="0 0 0 0 0.419608 0 0 0 0 0.168627 0 0 0 0 0.0784314 0 0 0 1 0"/>
<feBlend mode="normal" in2="BackgroundImageFix" result="effect1_dropShadow_305:67"/>
<feBlend mode="normal" in="SourceGraphic" in2="effect1_dropShadow_305:67" result="shape"/>
</filter>
<filter id="filter20_d_305:67" x="349.154" y="85.5452" width="141.599" height="111.61" filterUnits="userSpaceOnUse" color-interpolation-filters="sRGB">
<feFlood flood-opacity="0" result="BackgroundImageFix"/>
<feColorMatrix in="SourceAlpha" type="matrix" values="0 0 0 0 0 0 0 0 0 0 0 0 0 0 0 0 0 0 127 0" result="hardAlpha"/>
<feOffset dy="2"/>
<feGaussianBlur stdDeviation="1"/>
<feComposite in2="hardAlpha" operator="out"/>
<feColorMatrix type="matrix" values="0 0 0 0 0.419608 0 0 0 0 0.168627 0 0 0 0 0.0784314 0 0 0 1 0"/>
<feBlend mode="normal" in2="BackgroundImageFix" result="effect1_dropShadow_305:67"/>
<feBlend mode="normal" in="SourceGraphic" in2="effect1_dropShadow_305:67" result="shape"/>
</filter>
</defs>
</svg>
